<svg  fill="#ffffff" viewBox="0 0 1920 1440" preserveAspectRatio="none" xmlns="http://www.w3.org/2000/svg"><path d="M0,1440H1920V0H0ZM1180.15,189.62c17.81-72.88,132.41-107.49,256-77.3S1645.41,226.07,1627.6,299s-132.41,107.49-256,77.3S1162.34,262.5,1180.15,189.62Zm94.73,269.2c158.35-70.73,320.55-52.34,362.27,41.07S1584.31,726.35,1426,797.08,1105.39,849.42,1063.68,756,1116.52,529.55,1274.88,458.82ZM1379.33,858.5c231.74,0,419.61,110.81,419.61,247.5s-187.87,247.5-419.61,247.5-419.6-110.81-419.6-247.5S1147.59,858.5,1379.33,858.5Z"/></svg>